<svg width="18" height="18" viewBox="0 0 18 18" fill="none" xmlns="http://www.w3.org/2000/svg">
<path fill-rule="evenodd" clip-rule="evenodd" d="M2 14C2 15.1046 2.89543 16 4 16L14 16C15.1046 16 16 15.1046 16 14L16 13C16 12.4477 16.4477 12 17 12C17.5523 12 18 12.4477 18 13L18 14C18 16.2091 16.2091 18 14 18L4 18C1.79086 18 -7.8281e-08 16.2091 -1.74846e-07 14L-2.18557e-07 13C-2.42698e-07 12.4477 0.447715 12 1 12C1.55228 12 2 12.4477 2 13L2 14ZM4.29289 8.29289C4.68342 7.90237 5.31658 7.90237 5.70711 8.29289L8 10.5858L8 1C8 0.447715 8.44771 -3.69261e-07 9 -3.93402e-07C9.55228 -4.17544e-07 10 0.447715 10 1L10 10.5858L12.2929 8.29289C12.6834 7.90237 13.3166 7.90237 13.7071 8.29289C14.0976 8.68342 14.0976 9.31658 13.7071 9.70711L9.70711 13.7071C9.31658 14.0976 8.68342 14.0976 8.29289 13.7071L4.29289 9.70711C3.90237 9.31658 3.90237 8.68342 4.29289 8.29289Z" fill="white"/>
</svg>
