<svg width="40" height="40" viewBox="0 0 40 40" fill="none" xmlns="http://www.w3.org/2000/svg">
<path fill-rule="evenodd" clip-rule="evenodd" d="M4 6C4 2.68629 6.68629 0 10 0H30C33.3137 0 36 2.68629 36 6V36L38 35.9999C39.1045 35.9999 40 36.8954 40 37.9999C40 39.1045 39.1046 39.9999 38 39.9999H1.99997C0.895404 39.9999 -1.47818e-05 39.1045 1.83018e-10 37.9999C1.47821e-05 36.8954 0.895457 35.9999 2.00003 35.9999L4 36V6ZM8 36H14V28C14 25.7908 15.7909 24 18 24H22C24.2091 24 26 25.7908 26 28V36H32V6C32 4.89543 31.1046 4 30 4H10C8.89543 4 8 4.89543 8 6V36ZM22 36V28H18V36H22ZM12 9.99995C12 8.89538 12.8954 7.99995 14 7.99995H16C17.1046 7.99995 18 8.89538 18 9.99995C18 11.1045 17.1046 12 16 12H14C12.8954 12 12 11.1045 12 9.99995ZM22 9.99995C22 8.89538 22.8954 7.99995 24 7.99995H26C27.1046 7.99995 28 8.89538 28 9.99995C28 11.1045 27.1046 12 26 12H24C22.8954 12 22 11.1045 22 9.99995ZM12 18C12 16.8954 12.8954 16 14 16H16C17.1046 16 18 16.8954 18 18C18 19.1045 17.1046 20 16 20H14C12.8954 20 12 19.1045 12 18ZM22 18C22 16.8954 22.8954 16 24 16H26C27.1046 16 28 16.8954 28 18C28 19.1045 27.1046 20 26 20H24C22.8954 20 22 19.1045 22 18Z" fill="white"/>
</svg>
