<svg width="13" height="24" viewBox="0 0 13 24" fill="none" xmlns="http://www.w3.org/2000/svg">
<path d="M1.75 5.25C1.75 4.05653 2.22411 2.91193 3.06802 2.06802C3.91194 1.22411 5.05653 0.75 6.25 0.75C7.44348 0.75 8.58807 1.22411 9.43198 2.06802C10.2759 2.91193 10.75 4.05653 10.75 5.25V13.281C11.5138 14.147 12.0114 15.215 12.1832 16.3568C12.355 17.4987 12.1937 18.6658 11.7186 19.7183C11.2435 20.7707 10.4749 21.6637 9.50486 22.2901C8.53485 22.9164 7.40469 23.2496 6.25 23.2496C5.09532 23.2496 3.96516 22.9164 2.99514 22.2901C2.02513 21.6637 1.25646 20.7707 0.781377 19.7183C0.306296 18.6658 0.144983 17.4987 0.316797 16.3568C0.488611 15.215 0.986251 14.147 1.75 13.281V5.25ZM6.25 3C5.65327 3 5.08097 3.23705 4.65901 3.65901C4.23706 4.08097 4 4.65326 4 5.25V14.2125L3.655 14.5425C3.11492 15.0605 2.74217 15.7283 2.58471 16.4598C2.42724 17.1914 2.49227 17.9534 2.77142 18.6477C3.05057 19.3421 3.53108 19.937 4.15113 20.356C4.77118 20.775 5.50241 20.9989 6.25075 20.9989C6.9991 20.9989 7.73033 20.775 8.35038 20.356C8.97043 19.937 9.45093 19.3421 9.73008 18.6477C10.0092 17.9534 10.0743 17.1914 9.9168 16.4598C9.75934 15.7283 9.38659 15.0605 8.8465 14.5425L8.5 14.214V5.25C8.5 4.65326 8.26295 4.08097 7.84099 3.65901C7.41904 3.23705 6.84674 3 6.25 3ZM7 9C7 8.80109 6.92099 8.61032 6.78033 8.46967C6.63968 8.32902 6.44892 8.25 6.25 8.25C6.05109 8.25 5.86033 8.32902 5.71967 8.46967C5.57902 8.61032 5.5 8.80109 5.5 9V15.1275C4.99959 15.3044 4.57784 15.6526 4.30928 16.1104C4.04072 16.5682 3.94265 17.1062 4.03241 17.6293C4.12216 18.1524 4.39396 18.627 4.79976 18.9691C5.20556 19.3112 5.71924 19.4988 6.25 19.4988C6.78077 19.4988 7.29445 19.3112 7.70025 18.9691C8.10605 18.627 8.37785 18.1524 8.4676 17.6293C8.55735 17.1062 8.45928 16.5682 8.19073 16.1104C7.92217 15.6526 7.50041 15.3044 7 15.1275V9Z" fill="url(#paint0_linear_636_611)"/>
<defs>
<linearGradient id="paint0_linear_636_611" x1="-2.48418" y1="7.30052" x2="19.7392" y2="13.2033" gradientUnits="userSpaceOnUse">
<stop stop-color="#0F00E2"/>
<stop offset="1" stop-color="#00EDED"/>
</linearGradient>
</defs>
</svg>
