<svg width="40" height="24" viewBox="0 0 40 24" fill="none" xmlns="http://www.w3.org/2000/svg">
<path fill-rule="evenodd" clip-rule="evenodd" d="M24.7998 4.8C23.4743 4.8 22.3998 3.72548 22.3998 2.4C22.3998 1.07452 23.4743 0 24.7998 0H36.7998C38.1253 0 39.1998 1.07452 39.1998 2.4V14.4C39.1998 15.7255 38.1253 16.8 36.7998 16.8C35.4743 16.8 34.3998 15.7255 34.3998 14.4V8.19411L24.0969 18.4971C23.1596 19.4343 21.64 19.4343 20.7027 18.4971L15.1998 12.9941L4.89686 23.2971C3.9596 24.2343 2.44001 24.2343 1.50275 23.2971C0.56549 22.3598 0.56549 20.8402 1.50275 19.9029L13.5027 7.90294C14.44 6.96569 15.9596 6.96569 16.8969 7.90294L22.3998 13.4059L31.0057 4.8H24.7998Z" fill="white"/>
</svg>
