<svg width="40" height="40" viewBox="0 0 40 40" fill="none" xmlns="http://www.w3.org/2000/svg">
<path fill-rule="evenodd" clip-rule="evenodd" d="M20 4C11.1634 4 4 11.1634 4 20C4 28.8366 11.1634 36 20 36C28.8366 36 36 28.8366 36 20C36 11.1634 28.8366 4 20 4ZM0 20C0 8.9543 8.9543 0 20 0C31.0457 0 40 8.9543 40 20C40 31.0457 31.0457 40 20 40C8.9543 40 0 31.0457 0 20ZM27.4142 14.5858C28.1953 15.3668 28.1953 16.6332 27.4142 17.4142L19.4142 25.4142C18.6332 26.1953 17.3668 26.1953 16.5858 25.4142L12.5858 21.4142C11.8047 20.6332 11.8047 19.3668 12.5858 18.5858C13.3668 17.8047 14.6332 17.8047 15.4142 18.5858L18 21.1716L24.5858 14.5858C25.3668 13.8047 26.6332 13.8047 27.4142 14.5858Z" fill="white"/>
</svg>
