<svg width="50" height="46" viewBox="0 0 50 46" fill="none" xmlns="http://www.w3.org/2000/svg">
<path fill-rule="evenodd" clip-rule="evenodd" d="M20.1759 5.5C19.34 5.5 18.5595 5.91775 18.0958 6.61325L16.0645 9.66025C14.6735 11.7467 12.3317 13 9.82408 13H7.5C6.11929 13 5 14.1193 5 15.5V38C5 39.3807 6.11929 40.5 7.5 40.5H42.5C43.8807 40.5 45 39.3807 45 38V15.5C45 14.1193 43.8807 13 42.5 13H40.1759C37.6683 13 35.3265 11.7467 33.9355 9.66025L31.9042 6.61325C31.4405 5.91775 30.66 5.5 29.8241 5.5H20.1759ZM13.9355 3.83975C15.3265 1.75326 17.6683 0.5 20.1759 0.5H29.8241C32.3317 0.5 34.6735 1.75326 36.0645 3.83975L38.0958 6.88675C38.5595 7.58225 39.34 8 40.1759 8H42.5C46.6421 8 50 11.3579 50 15.5V38C50 42.1421 46.6421 45.5 42.5 45.5H7.5C3.35786 45.5 0 42.1421 0 38V15.5C0 11.3579 3.35786 8 7.5 8H9.82408C10.66 8 11.4405 7.58225 11.9042 6.88675L13.9355 3.83975ZM25 20.5C22.2386 20.5 20 22.7386 20 25.5C20 28.2614 22.2386 30.5 25 30.5C27.7614 30.5 30 28.2614 30 25.5C30 22.7386 27.7614 20.5 25 20.5ZM15 25.5C15 19.9772 19.4772 15.5 25 15.5C30.5228 15.5 35 19.9772 35 25.5C35 31.0228 30.5228 35.5 25 35.5C19.4772 35.5 15 31.0228 15 25.5Z" fill="white"/>
</svg>
