<svg width="50" height="40" viewBox="0 0 50 40" fill="none" xmlns="http://www.w3.org/2000/svg">
<path fill-rule="evenodd" clip-rule="evenodd" d="M0 5C0 2.23857 2.23858 0 5 0H25C27.7614 0 30 2.23857 30 5H36.4645C37.7906 5 39.0623 5.52679 40 6.46446L38.2322 8.23223L40 6.46447L48.5355 15C49.4732 15.9377 50 17.2094 50 18.5355V30C50 32.7614 47.7614 35 45 35H44.5732C43.5436 37.913 40.7655 40 37.5 40C34.2345 40 31.4564 37.913 30.4268 35H30C29.0893 35 28.2354 34.7565 27.5 34.3311C26.7646 34.7565 25.9107 35 25 35H19.5732C18.5436 37.913 15.7655 40 12.5 40C9.23445 40 6.45635 37.913 5.42676 35H5C2.23858 35 0 32.7614 0 30V5ZM5.42676 30C6.45635 27.087 9.23445 25 12.5 25C15.7655 25 18.5436 27.087 19.5732 30H25L25 10C25 9.99767 25 9.99535 25 9.99302L25 10M25 9.99302L25 5L5 5V30H5.42676M30 30H30.4268C31.4564 27.087 34.2345 25 37.5 25C40.7655 25 43.5436 27.087 44.5732 30H45L45 18.5355L36.4645 10H30L30 30ZM12.5 30C11.1193 30 10 31.1193 10 32.5C10 33.8807 11.1193 35 12.5 35C13.8807 35 15 33.8807 15 32.5C15 31.1193 13.8807 30 12.5 30ZM37.5 30C36.1193 30 35 31.1193 35 32.5C35 33.8807 36.1193 35 37.5 35C38.8807 35 40 33.8807 40 32.5C40 31.1193 38.8807 30 37.5 30Z" fill="white"/>
</svg>
