<svg width="20" height="20" viewBox="0 0 20 20" fill="none" xmlns="http://www.w3.org/2000/svg">
<path d="M18.916 7.5639C18.9688 7.44382 18.9975 7.3145 19.0003 7.18334C19.0031 7.05219 18.98 6.92176 18.9323 6.79954C18.8847 6.67731 18.8134 6.56567 18.7226 6.47102C18.6318 6.37636 18.5232 6.30054 18.403 6.2479L5.328 0.491896C4.333 0.0538956 3.108 0.542895 2.683 1.5339L0.473 6.6879C0.265088 7.17542 0.259088 7.72552 0.456316 8.21747C0.653544 8.70941 1.03789 9.10301 1.525 9.3119L7.563 11.8999L6.323 14.9999H2V11.9999H0V19.9999H2V16.9999H6.323C7.146 16.9999 7.875 16.5059 8.179 15.7419L9.401 12.6879L14.606 14.9179C14.8484 15.0219 15.1221 15.0259 15.3674 14.9291C15.6128 14.8323 15.81 14.6424 15.916 14.4009L16.228 13.6909L17.929 14.3709L19.929 9.3709L18.393 8.7579L18.916 7.5639ZM14.482 12.6899L2.313 7.4749L4.521 2.3229L16.683 7.6769L14.482 12.6899Z" fill="url(#paint0_linear_636_600)"/>
<defs>
<linearGradient id="paint0_linear_636_600" x1="-4.54079" y1="6.05708" x2="26.9522" y2="21.9479" gradientUnits="userSpaceOnUse">
<stop stop-color="#0F00E2"/>
<stop offset="1" stop-color="#00EDED"/>
</linearGradient>
</defs>
</svg>
