<svg width="18" height="18" viewBox="0 0 18 18" fill="none" xmlns="http://www.w3.org/2000/svg">
<path fill-rule="evenodd" clip-rule="evenodd" d="M17.5335 8.9883C17.5335 9.56539 17.4747 10.1417 17.3593 10.7034C17.2468 11.2518 17.0801 11.7902 16.8618 12.3049C16.6485 12.8105 16.3839 13.2977 16.0747 13.7521C15.7701 14.2036 15.4192 14.6271 15.0338 15.0133C14.6475 15.3977 14.2225 15.7476 13.7712 16.0535C13.3154 16.3605 12.8275 16.6247 12.3216 16.8391C11.8061 17.0562 11.2665 17.2227 10.7186 17.335C10.1561 17.4507 9.57767 17.5098 8.99975 17.5098C8.42139 17.5098 7.84303 17.4507 7.28133 17.335C6.73257 17.2227 6.19295 17.0562 5.67792 16.8391C5.17207 16.6247 4.68369 16.3605 4.22784 16.0535C3.77657 15.7476 3.35155 15.3977 2.96611 15.0133C2.58027 14.6271 2.2294 14.2036 1.92439 13.7521C1.61687 13.2977 1.35184 12.8105 1.13768 12.3049C0.919305 11.7902 0.752236 11.2518 0.63931 10.7034C0.525147 10.1417 0.466797 9.56539 0.466797 8.9883C0.466797 8.41077 0.525114 7.83325 0.639343 7.27273C0.75227 6.72432 0.919338 6.18509 1.13771 5.67123C1.35187 5.16528 1.6169 4.67764 1.92442 4.22325C2.22943 3.77139 2.5803 3.34862 2.96614 2.96207C3.35158 2.57759 3.7766 2.22852 4.22787 1.92312C4.68372 1.61478 5.1721 1.35059 5.67795 1.13587C6.19298 0.918218 6.73257 0.751391 7.28137 0.639894C7.84306 0.525063 8.42142 0.466797 8.99978 0.466797C9.57771 0.466797 10.1561 0.525063 10.7186 0.639894C11.2665 0.751424 11.8061 0.918251 12.3216 1.13587C12.8275 1.35056 13.3154 1.61478 13.7713 1.92312C14.2225 2.22852 14.6476 2.57759 15.0338 2.96207C15.4193 3.34862 15.7701 3.77139 16.0747 4.22325C16.3839 4.67764 16.6485 5.16531 16.8618 5.67123C17.0801 6.18509 17.2468 6.72432 17.3593 7.27273C17.4747 7.83325 17.5335 8.41077 17.5335 8.9883ZM5.89038 2.40618C3.85817 3.36445 2.34143 5.23434 1.86848 7.48787C2.0606 7.48954 5.09742 7.52783 8.59634 6.59951C7.33505 4.36178 5.98748 2.53562 5.89038 2.40618ZM9.20012 7.72008C5.44786 8.84181 1.84724 8.7611 1.71808 8.75613C1.71597 8.83434 1.71223 8.91005 1.71223 8.98829C1.71223 10.8577 2.41851 12.562 3.57941 13.8507C3.5769 13.8469 5.5712 10.3139 9.50389 9.04406C9.59888 9.01244 9.69558 8.98412 9.7914 8.95667C9.6085 8.54311 9.40887 8.12867 9.20012 7.72008ZM13.8125 3.52672C12.5295 2.39701 10.8448 1.71176 8.99972 1.71176C8.4076 1.71176 7.83298 1.78333 7.28254 1.91564C7.3917 2.06212 8.76054 3.87541 10.0068 6.16053C12.7566 5.13115 13.7945 3.55333 13.8125 3.52672ZM10.2882 10.1625C10.2719 10.1679 10.2557 10.1725 10.2398 10.1783C5.94009 11.6751 4.53595 14.6915 4.52076 14.7245C5.75793 15.6852 7.30968 16.2648 8.99977 16.2648C10.009 16.2648 10.9703 16.0596 11.8449 15.6881C11.737 15.0523 11.3136 12.8238 10.2882 10.1625ZM13.072 15.0232C14.7083 13.9206 15.8705 12.1697 16.1946 10.1416C16.0446 10.0934 14.0058 9.44886 11.6536 9.82544C12.6095 12.4485 12.9978 14.5847 13.072 15.0232ZM10.5678 7.24487C10.7369 7.5919 10.9007 7.9451 11.0519 8.30007C11.1057 8.42741 11.1582 8.55225 11.2095 8.67705C13.7129 8.36247 16.1793 8.89174 16.2847 8.91335C16.2681 7.18828 15.6501 5.60505 14.6276 4.36555C14.6138 4.38506 13.445 6.07148 10.5678 7.24487Z" fill="url(#paint0_linear_636_303)"/>
<defs>
<linearGradient id="paint0_linear_636_303" x1="-3.42181" y1="5.42867" x2="23.6754" y2="18.9421" gradientUnits="userSpaceOnUse">
<stop stop-color="#0F00E2"/>
<stop offset="1" stop-color="#00EDED"/>
</linearGradient>
</defs>
</svg>
