<svg width="49" height="42" viewBox="0 0 49 42" fill="none" xmlns="http://www.w3.org/2000/svg">
<path d="M6.5 0C3.18629 0 0.5 2.68629 0.5 6C0.5 9.31371 3.18629 12 6.5 12H42.5C45.8137 12 48.5 9.31371 48.5 6C48.5 2.68629 45.8137 0 42.5 0H6.5Z" fill="white"/>
<path fill-rule="evenodd" clip-rule="evenodd" d="M3.5 15H45.5V36C45.5 39.3137 42.8137 42 39.5 42H9.5C6.18629 42 3.5 39.3137 3.5 36V15ZM18.5 24C18.5 22.3431 19.8431 21 21.5 21H27.5C29.1569 21 30.5 22.3431 30.5 24C30.5 25.6569 29.1569 27 27.5 27H21.5C19.8431 27 18.5 25.6569 18.5 24Z" fill="white"/>
</svg>
