<svg width="18" height="13" viewBox="0 0 18 13" fill="none" xmlns="http://www.w3.org/2000/svg">
<path fill-rule="evenodd" clip-rule="evenodd" d="M15.6679 0.499032C16.4022 0.700541 16.9805 1.29429 17.1768 2.04829C17.5335 3.41484 17.5335 6.26615 17.5335 6.26615C17.5335 6.26615 17.5335 9.11735 17.1768 10.484C16.9805 11.238 16.4022 11.8317 15.6679 12.0334C14.3371 12.3995 9.00013 12.3995 9.00013 12.3995C9.00013 12.3995 3.66321 12.3995 2.3323 12.0334C1.59795 11.8317 1.01962 11.238 0.823354 10.484C0.466797 9.11735 0.466797 6.26615 0.466797 6.26615C0.466797 6.26615 0.466797 3.41484 0.823354 2.04829C1.01962 1.29429 1.59795 0.700541 2.3323 0.499032C3.66321 0.132812 9.00013 0.132812 9.00013 0.132812C9.00013 0.132812 14.3371 0.132812 15.6679 0.499032ZM7.40015 3.86609V9.19942L11.6668 6.53286L7.40015 3.86609Z" fill="url(#paint0_linear_636_309)"/>
<defs>
<linearGradient id="paint0_linear_636_309" x1="-3.42181" y1="3.70412" x2="19.4393" y2="19.5442" gradientUnits="userSpaceOnUse">
<stop stop-color="#0F00E2"/>
<stop offset="1" stop-color="#00EDED"/>
</linearGradient>
</defs>
</svg>
