<svg width="41" height="40" viewBox="0 0 41 40" fill="none" xmlns="http://www.w3.org/2000/svg">
<path fill-rule="evenodd" clip-rule="evenodd" d="M14.333 4C11.0193 4 8.33301 6.68629 8.33301 10C8.33301 13.3137 11.0193 16 14.333 16C16.116 16 17.7174 15.2222 18.8164 13.9875C18.8267 13.9755 18.8372 13.9637 18.8478 13.9519C19.7725 12.8963 20.333 11.5136 20.333 10C20.333 8.48636 19.7725 7.10363 18.8478 6.04804C18.8372 6.03632 18.8267 6.0245 18.8165 6.01258C17.7175 4.77778 16.1161 4 14.333 4ZM20.3332 1.99942C18.6619 0.74395 16.5843 0 14.333 0C8.81016 0 4.33301 4.47715 4.33301 10C4.33301 15.5228 8.81016 20 14.333 20C16.5843 20 18.6619 19.2561 20.3332 18.0006C22.0037 19.2548 24.082 20 26.333 20C31.8559 20 36.333 15.5228 36.333 10C36.333 4.47715 31.8559 0 26.333 0C24.082 0 22.0037 0.745153 20.3332 1.99942ZM23.0006 5.00936C23.8481 6.47811 24.333 8.18242 24.333 10C24.333 11.8176 23.8481 13.5219 23.0006 14.9906C23.9543 15.6291 25.0998 16 26.333 16C29.6467 16 32.333 13.3137 32.333 10C32.333 6.68629 29.6467 4 26.333 4C25.0998 4 23.9543 4.37088 23.0006 5.00936ZM14.333 26C8.81016 26 4.33301 30.4772 4.33301 36H24.333C24.333 30.4772 19.8559 26 14.333 26ZM28.333 36H36.333C36.333 30.4772 31.8559 26 26.333 26C25.6467 26 24.9773 26.0689 24.3311 26.2C26.8066 28.7253 28.333 32.1844 28.333 36ZM20.3336 23.3475C18.5149 22.4835 16.4804 22 14.333 22C6.60102 22 0.333008 28.268 0.333008 36V38C0.333008 39.1046 1.22844 40 2.33301 40H38.333C39.4376 40 40.333 39.1046 40.333 38V36C40.333 28.268 34.065 22 26.333 22C24.189 22 22.1536 22.4832 20.3336 23.3475Z" fill="white"/>
</svg>
