<svg width="50" height="48" viewBox="0 0 50 48" fill="none" xmlns="http://www.w3.org/2000/svg">
<path fill-rule="evenodd" clip-rule="evenodd" d="M0 3C0 1.61929 1.11929 0.5 2.5 0.5H47.5C48.8807 0.5 50 1.61929 50 3C50 4.38071 48.8807 5.5 47.5 5.5V33C47.5 35.7614 45.2614 38 42.5 38H31.0355L36.7678 43.7322C37.7441 44.7085 37.7441 46.2915 36.7678 47.2678C35.7915 48.2441 34.2085 48.2441 33.2322 47.2678L25 39.0355L16.7678 47.2678C15.7915 48.2441 14.2085 48.2441 13.2322 47.2678C12.2559 46.2915 12.2559 44.7085 13.2322 43.7322L18.9645 38H7.5C4.73858 38 2.5 35.7614 2.5 33V5.5C1.11929 5.5 0 4.38071 0 3ZM7.5 5.5V33H24.9983C24.9994 33 25.0006 33 25.0017 33H42.5V5.5H7.5ZM35 10.5C36.3807 10.5 37.5 11.6193 37.5 13V25.5C37.5 26.8807 36.3807 28 35 28C33.6193 28 32.5 26.8807 32.5 25.5V13C32.5 11.6193 33.6193 10.5 35 10.5ZM25 15.5C26.3807 15.5 27.5 16.6193 27.5 18V25.5C27.5 26.8807 26.3807 28 25 28C23.6193 28 22.5 26.8807 22.5 25.5V18C22.5 16.6193 23.6193 15.5 25 15.5ZM15 20.5C16.3807 20.5 17.5 21.6193 17.5 23V25.5C17.5 26.8807 16.3807 28 15 28C13.6193 28 12.5 26.8807 12.5 25.5V23C12.5 21.6193 13.6193 20.5 15 20.5Z" fill="white"/>
</svg>
