<svg width="43" height="32" viewBox="0 0 43 32" fill="none" xmlns="http://www.w3.org/2000/svg">
<path fill-rule="evenodd" clip-rule="evenodd" d="M4.69203 15.9999C7.16346 22.9931 13.8337 28 21.6684 28C29.5031 28 36.1733 22.9931 38.6447 16.0001C36.1733 9.00691 29.5031 4 21.6684 4C13.8337 4 7.1635 9.00684 4.69203 15.9999ZM0.675888 15.4006C3.47872 6.47684 11.8146 0 21.6684 0C31.5222 0 39.8581 6.47692 42.6609 15.4008C42.7834 15.7909 42.7834 16.2092 42.6609 16.5994C39.858 25.5232 31.5222 32 21.6684 32C11.8145 32 3.47867 25.5231 0.675884 16.5992C0.55335 16.2091 0.553351 15.7908 0.675888 15.4006ZM21.6675 12C19.4583 12 17.6675 13.7909 17.6675 16C17.6675 18.2091 19.4583 20 21.6675 20C23.8766 20 25.6675 18.2091 25.6675 16C25.6675 13.7909 23.8766 12 21.6675 12ZM13.6675 16C13.6675 11.5817 17.2492 8 21.6675 8C26.0858 8 29.6675 11.5817 29.6675 16C29.6675 20.4183 26.0858 24 21.6675 24C17.2492 24 13.6675 20.4183 13.6675 16Z" fill="white"/>
</svg>
