<svg width="20" height="16" viewBox="0 0 20 16" fill="none" xmlns="http://www.w3.org/2000/svg">
<path fill-rule="evenodd" clip-rule="evenodd" d="M10.3909 0.390524C10.9115 -0.130175 11.7558 -0.130175 12.2765 0.390524L18.9431 7.05719C19.1932 7.30724 19.3337 7.64638 19.3337 8C19.3337 8.35362 19.1932 8.69276 18.9431 8.94281L12.2765 15.6095C11.7558 16.1302 10.9115 16.1302 10.3909 15.6095C9.87015 15.0888 9.87015 14.2446 10.3909 13.7239L14.7814 9.33333L2.00033 9.33333C1.26395 9.33333 0.666992 8.73638 0.666992 8C0.666992 7.26362 1.26395 6.66667 2.00033 6.66667L14.7814 6.66667L10.3909 2.27614C9.87015 1.75544 9.87015 0.911223 10.3909 0.390524Z" fill="white"/>
</svg>
