<svg width="40" height="40" viewBox="0 0 40 40" fill="none" xmlns="http://www.w3.org/2000/svg">
<path fill-rule="evenodd" clip-rule="evenodd" d="M18.5858 0.585786C19.3668 -0.195262 20.6332 -0.195262 21.4142 0.585786L39.4142 18.5858C40.1953 19.3668 40.1953 20.6332 39.4142 21.4142C38.6332 22.1953 37.3668 22.1953 36.5858 21.4142L36 20.8284V36C36 38.2091 34.2091 40 32 40H8C5.79086 40 4 38.2091 4 36V20.8284L3.41421 21.4142C2.63317 22.1953 1.36683 22.1953 0.585786 21.4142C-0.195262 20.6332 -0.195262 19.3668 0.585786 18.5858L18.5858 0.585786ZM8 16.8284V36H14V28C14 25.7909 15.7909 24 18 24H22C24.2091 24 26 25.7909 26 28V36H32V16.8284L20 4.82843L8 16.8284ZM22 36V28H18V36H22Z" fill="white"/>
</svg>
