<svg width="50" height="50" viewBox="0 0 50 50" fill="none" xmlns="http://www.w3.org/2000/svg">
<path fill-rule="evenodd" clip-rule="evenodd" d="M0 7.5C0 3.35786 3.35786 0 7.5 0H42.5C46.6421 0 50 3.35786 50 7.5V32.5C50 36.6421 46.6421 40 42.5 40H33.8269L34.7574 43.7219L36.7678 45.7322C37.4828 46.4472 37.6967 47.5225 37.3097 48.4567C36.9227 49.3909 36.0112 50 35 50H15C13.9888 50 13.0773 49.3909 12.6903 48.4567C12.3033 47.5225 12.5172 46.4472 13.2322 45.7322L15.2426 43.7219L16.1731 40H7.5C3.35786 40 0 36.6421 0 32.5V7.5ZM5 30V32.5C5 33.8807 6.11929 35 7.5 35H19.3189C19.3549 34.9992 19.3911 34.9992 19.4273 35H30.5727C30.6089 34.9992 30.6451 34.9992 30.6811 35H42.5C43.8807 35 45 33.8807 45 32.5V30H5ZM45 25H5V7.5C5 6.11929 6.11929 5 7.5 5H42.5C43.8807 5 45 6.11929 45 7.5V25ZM28.6731 40H21.3269L20.0769 45H29.9231L28.6731 40Z" fill="white"/>
</svg>
