<svg width="44" height="36" viewBox="0 0 44 36" fill="none" xmlns="http://www.w3.org/2000/svg">
<path fill-rule="evenodd" clip-rule="evenodd" d="M22 4C19.7909 4 18 5.79086 18 8C18 10.2091 19.7909 12 22 12C24.2091 12 26 10.2091 26 8C26 5.79086 24.2091 4 22 4ZM14 8C14 3.58172 17.5817 0 22 0C26.4183 0 30 3.58172 30 8C30 12.4183 26.4183 16 22 16C17.5817 16 14 12.4183 14 8ZM8 12C6.89543 12 6 12.8954 6 14C6 15.1046 6.89543 16 8 16C9.10457 16 10 15.1046 10 14C10 12.8954 9.10457 12 8 12ZM2 14C2 10.6863 4.68629 8 8 8C11.3137 8 14 10.6863 14 14C14 17.3137 11.3137 20 8 20C4.68629 20 2 17.3137 2 14ZM36 12C34.8954 12 34 12.8954 34 14C34 15.1046 34.8954 16 36 16C37.1046 16 38 15.1046 38 14C38 12.8954 37.1046 12 36 12ZM30 14C30 10.6863 32.6863 8 36 8C39.3137 8 42 10.6863 42 14C42 17.3137 39.3137 20 36 20C32.6863 20 30 17.3137 30 14ZM22 22C18.6349 22 15.7503 24.0784 14.5693 27.029C14.2027 27.9449 14 28.9463 14 30V32H30V30C30 28.9463 29.7973 27.9449 29.4307 27.029C28.2497 24.0784 25.3651 22 22 22ZM34 32H40V30C40 27.7909 38.2091 26 36 26C35.0879 26 34.2474 26.3041 33.5734 26.8195C33.8517 27.834 34 28.9009 34 30V32ZM31.8572 23.1553C29.6909 20.0411 26.0854 18 22 18C17.9146 18 14.3091 20.0411 12.1428 23.1553C10.9348 22.4228 9.51659 22 8 22C3.58172 22 0 25.5817 0 30V34C0 35.1046 0.89543 36 2 36H42C43.1046 36 44 35.1046 44 34V30C44 25.5817 40.4183 22 36 22C34.4834 22 33.0652 22.4228 31.8572 23.1553ZM10.4266 26.8195C9.75264 26.3041 8.91214 26 8 26C5.79086 26 4 27.7909 4 30V32H10V30C10 28.9009 10.1483 27.834 10.4266 26.8195Z" fill="white"/>
</svg>
