<svg width="109" height="37" viewBox="0 0 109 37" fill="none" xmlns="http://www.w3.org/2000/svg">
<path d="M9.48865 31.5607C9.75256 31.6885 10.0349 31.751 10.3141 31.751C10.9893 31.751 11.6368 31.3911 11.9621 30.7666C12.4193 29.8863 12.0511 28.8126 11.1427 28.3725C6.54263 26.136 3.6856 21.6481 3.6856 16.6636C3.68253 9.44262 9.74336 3.56886 17.1913 3.56886C24.6392 3.56886 30.7 9.44262 30.7 16.6606C30.7 21.5946 27.8829 26.0616 23.3472 28.316C22.4419 28.765 22.086 29.8417 22.5494 30.719C23.0127 31.5963 24.1236 31.9413 25.0289 31.4923C30.7982 28.6223 34.3825 22.9389 34.3825 16.6606C34.3825 7.4738 26.6707 0 17.1913 0C7.71183 0 0 7.4738 0 16.6606C0 23.0043 3.6365 28.7115 9.48865 31.5607Z" fill="#4B7EF6"/>
<path d="M17.1928 36.002C18.2086 36.002 19.0341 35.202 19.0341 34.2176V21.9407C19.0341 20.9563 18.2086 20.1562 17.1928 20.1562C16.1771 20.1562 15.3516 20.9563 15.3516 21.9407V34.2206C15.3516 35.205 16.1771 36.002 17.1928 36.002Z" fill="#4B7EF6"/>
<path d="M21.7401 13.548V22.8122C21.7401 23.4694 22.2894 24.0018 22.9676 24.0018C23.6458 24.0018 24.1951 23.4694 24.1951 22.8122V14.8982L25.7908 15.9153C26.3555 16.2752 27.1196 16.1235 27.4909 15.5763C27.8623 15.0261 27.7058 14.2885 27.1411 13.9287L17.1921 7.58203L7.25543 13.9763C6.69078 14.3391 6.53734 15.0766 6.91173 15.6239C7.14803 15.9689 7.53776 16.1562 7.9367 16.1562C8.16993 16.1562 8.40623 16.0908 8.6149 15.957L9.70739 15.2521V22.8122C9.70739 23.4694 10.2567 24.0018 10.9349 24.0018C11.6131 24.0018 12.1624 23.4694 12.1624 22.8122V13.6729L17.1983 10.4342L21.7615 13.3457C21.7493 13.4112 21.7401 13.4796 21.7401 13.548Z" fill="#54CE40" fill-opacity="0.75"/>
<path d="M44.0936 17.8971C44.0936 17.3321 44.1518 16.8074 44.2624 16.3232C44.3788 15.8389 44.565 15.418 44.8385 15.049C45.1063 14.6858 45.4613 14.3976 45.9036 14.19C46.3459 13.9825 46.8813 13.8729 47.5157 13.8729C47.7252 13.8729 47.9463 13.8844 48.1733 13.9075C48.4003 13.9306 48.5981 13.9594 48.7611 13.994V10.8C48.4817 10.7193 48.2315 10.679 48.0045 10.679C47.5622 10.679 47.1432 10.7424 46.7358 10.875C46.3284 11.0018 45.9443 11.1863 45.5893 11.4169C45.2285 11.6533 44.9142 11.9358 44.6348 12.2644C44.3555 12.593 44.1402 12.9562 43.9772 13.3425H43.9248V11.0191H40.625V23.5355H44.0936V17.8971Z" fill="#4B7EF6"/>
<path d="M42.7136 27.8024H40.9618V26.3899H40.5195V29.6819H40.9618V28.1714H42.7136V29.6819H43.1559V26.3899H42.7136V27.8024Z" fill="#4B7EF6"/>
<path d="M46.4361 26.8325C46.3023 26.6711 46.1393 26.5442 45.9356 26.452C45.7377 26.354 45.505 26.3079 45.2431 26.3079C44.9812 26.3079 44.7484 26.354 44.5505 26.452C44.3526 26.55 44.1839 26.6768 44.05 26.8325C43.9161 26.9939 43.8172 27.1784 43.7474 27.386C43.6775 27.5935 43.6484 27.8068 43.6484 28.0317C43.6484 28.2565 43.6834 28.4698 43.7474 28.6774C43.8114 28.8849 43.9161 29.0694 44.05 29.2309C44.1839 29.3923 44.3468 29.5191 44.5505 29.6114C44.7542 29.7036 44.9812 29.7497 45.2431 29.7497C45.505 29.7497 45.7377 29.7036 45.9356 29.6114C46.1335 29.5191 46.3023 29.3923 46.4361 29.2309C46.57 29.0694 46.6689 28.8849 46.7388 28.6774C46.8086 28.4698 46.8377 28.2565 46.8377 28.0317C46.8377 27.8068 46.8028 27.5935 46.7388 27.386C46.6747 27.1784 46.57 26.9939 46.4361 26.8325ZM46.3314 28.5275C46.2906 28.6889 46.2208 28.8331 46.1277 28.9657C46.0346 29.0925 45.9123 29.1963 45.7668 29.277C45.6213 29.3577 45.4468 29.3923 45.2431 29.3923C45.0394 29.3923 44.8648 29.3519 44.7193 29.277C44.5738 29.1963 44.4516 29.0925 44.3585 28.9657C44.2653 28.8388 44.1955 28.6889 44.1548 28.5275C44.114 28.3661 44.0907 28.2046 44.0907 28.0374C44.0907 27.8703 44.114 27.7088 44.1548 27.5474C44.1955 27.386 44.2653 27.2418 44.3585 27.1092C44.4516 26.9824 44.5738 26.8786 44.7193 26.7979C44.8648 26.7172 45.0394 26.6826 45.2431 26.6826C45.4468 26.6826 45.6213 26.723 45.7668 26.7979C45.9123 26.8786 46.0346 26.9824 46.1277 27.1092C46.2208 27.2361 46.2906 27.386 46.3314 27.5474C46.3721 27.7088 46.3954 27.8703 46.3954 28.0374C46.3954 28.2046 46.3721 28.3661 46.3314 28.5275Z" fill="#4B7EF6"/>
<path d="M50.1367 11.0171V23.5335H53.6053V17.8893C53.6053 17.3243 53.6635 16.7996 53.7741 16.3153C53.8905 15.8311 54.0767 15.4102 54.3503 15.0412C54.618 14.678 54.973 14.3897 55.4153 14.1822C55.8576 13.9746 56.393 13.8651 57.0274 13.8651C57.2369 13.8651 57.458 13.8766 57.685 13.8997C57.912 13.9227 58.1098 13.9516 58.2728 13.9862V10.7922C57.9934 10.7115 57.7432 10.6711 57.5162 10.6711C57.0739 10.6711 56.6549 10.7346 56.2475 10.8672C55.8401 10.994 55.456 11.1785 55.101 11.4091C54.7402 11.6455 54.4259 11.928 54.1466 12.2566C53.8672 12.5852 53.6519 12.9484 53.4889 13.3347H53.4424V11.0113H50.1367V11.0171Z" fill="#4B7EF6"/>
<path d="M66.502 21.2257C66.2808 21.3468 66.0364 21.4332 65.7687 21.4909C65.501 21.5485 65.2449 21.5774 65.0005 21.5774C64.6571 21.5774 64.3312 21.537 64.0111 21.4563C63.691 21.3756 63.4117 21.2487 63.1672 21.0816C62.9228 20.9144 62.7249 20.6953 62.5678 20.4301C62.4106 20.1649 62.335 19.8478 62.335 19.473H59.0352C59.0701 20.3148 59.2563 21.0124 59.6113 21.5658C59.9605 22.1251 60.4086 22.569 60.9557 22.9091C61.5028 23.2493 62.1255 23.4914 62.8239 23.6356C63.5222 23.7797 64.2439 23.8547 64.9772 23.8547C65.693 23.8547 66.3972 23.7855 67.0898 23.6471C67.7823 23.5087 68.3992 23.2724 68.9346 22.9322C69.4701 22.5921 69.9066 22.1424 70.2441 21.5889C70.5758 21.0297 70.7446 20.3436 70.7446 19.5192C70.7446 18.9369 70.6282 18.4526 70.4012 18.0548C70.1743 17.657 69.8716 17.3284 69.4992 17.0632C69.1267 16.798 68.696 16.5846 68.213 16.4232C67.7299 16.2618 67.2411 16.1234 66.7348 16.0139C66.2459 15.8986 65.7628 15.7948 65.2914 15.6968C64.82 15.5988 64.401 15.4892 64.0344 15.3682C63.6677 15.2471 63.3709 15.0914 63.1439 14.8954C62.917 14.6994 62.8006 14.4515 62.8006 14.1459C62.8006 13.8865 62.8646 13.6847 62.9984 13.5291C63.1265 13.3734 63.2894 13.2581 63.4757 13.1774C63.6619 13.0967 63.8714 13.0448 64.0984 13.0217C64.3254 12.9986 64.5407 12.9871 64.7327 12.9871C65.3496 12.9871 65.8909 13.1024 66.3448 13.3388C66.7988 13.5752 67.0548 14.0191 67.1014 14.6821H70.4012C70.3372 13.9096 70.1335 13.2638 69.8018 12.7565C69.4701 12.2492 69.0452 11.8398 68.5447 11.5343C68.0384 11.2287 67.4622 11.0096 66.8221 10.8828C66.1761 10.756 65.5126 10.6868 64.8317 10.6868C64.1449 10.6868 63.4815 10.7444 62.8297 10.8655C62.1779 10.9866 61.5901 11.1941 61.0721 11.4939C60.5483 11.7937 60.1293 12.203 59.815 12.7161C59.4949 13.235 59.3378 13.8923 59.3378 14.6994C59.3378 15.2471 59.4542 15.7141 59.6812 16.0946C59.9081 16.4751 60.2108 16.7864 60.5832 17.0401C60.9557 17.2938 61.3864 17.4898 61.8694 17.6455C62.3524 17.8011 62.8413 17.9337 63.3476 18.0433C64.5872 18.3027 65.5533 18.5621 66.2459 18.8158C66.9385 19.0752 67.2876 19.4615 67.2876 19.9804C67.2876 20.2859 67.212 20.5396 67.0665 20.7414C66.9035 20.9432 66.7173 21.1046 66.502 21.2257Z" fill="#4B7EF6"/>
<path d="M79.7144 13.3184V11.0181H77.1711V7.26489H73.7025V11.0181H71.6016V13.3184H73.7025V20.7037C73.7025 21.3321 73.8073 21.8395 74.0226 22.2315C74.2321 22.6178 74.5231 22.9176 74.8898 23.1251C75.2564 23.3327 75.6812 23.4768 76.1585 23.546C76.6415 23.621 77.1478 23.6555 77.6833 23.6555C78.0266 23.6555 78.3758 23.6498 78.7366 23.6325C79.0975 23.6152 79.4234 23.5864 79.7144 23.5345V20.8709C79.5514 20.9055 79.3826 20.9286 79.2022 20.9459C79.0218 20.9632 78.8356 20.9689 78.6377 20.9689C78.0499 20.9689 77.66 20.8709 77.4621 20.6807C77.2642 20.4904 77.1711 20.0984 77.1711 19.5161V13.3184H79.7144Z" fill="#4B7EF6"/>
<path d="M93.1074 15.3237C92.8805 14.4359 92.508 13.646 91.9959 12.9484C91.4837 12.2566 90.8261 11.7031 90.0288 11.288C89.2315 10.8787 88.2945 10.6711 87.2178 10.6711C86.2575 10.6711 85.3787 10.8383 84.5872 11.1785C83.7957 11.5186 83.1148 11.9799 82.5445 12.5737C81.9742 13.1617 81.5318 13.8593 81.2234 14.6665C80.9149 15.4736 80.7578 16.3442 80.7578 17.2839C80.7578 18.2525 80.9091 19.1403 81.2118 19.9475C81.5144 20.7546 81.9392 21.4464 82.4979 22.0287C83.0508 22.611 83.7259 23.0607 84.529 23.372C85.3264 23.6891 86.2226 23.8448 87.2178 23.8448C88.6495 23.8448 89.8716 23.5219 90.8843 22.8762C91.8969 22.2305 92.6419 21.1582 93.1307 19.6534H90.0753C89.9589 20.0397 89.6505 20.4087 89.1442 20.7546C88.6378 21.1005 88.0384 21.2735 87.3342 21.2735C86.3565 21.2735 85.6057 21.0256 85.0877 20.524C84.564 20.0224 84.2788 19.2153 84.2322 18.1026H93.3519C93.4159 17.1398 93.3344 16.2116 93.1074 15.3237ZM84.2381 15.9291C84.2555 15.6869 84.3079 15.4102 84.3952 15.1046C84.4825 14.7991 84.6396 14.505 84.8608 14.2341C85.0819 13.9573 85.3729 13.7267 85.7396 13.5422C86.1062 13.3578 86.566 13.2655 87.1189 13.2655C87.9686 13.2655 88.5971 13.4904 89.0103 13.9458C89.4235 14.3955 89.7145 15.0585 89.8775 15.9291H84.2381Z" fill="#4B7EF6"/>
<path d="M103.57 11.019L99.1932 15.5217V6.24536H95.7188V23.5354H99.1932V19.2287L100.538 17.9431L104.006 23.5354H108.214L102.906 15.6197L107.673 11.019H103.57Z" fill="#4B7EF6"/>
<path d="M48.9927 29.1572L47.9451 26.3899H47.3398V29.6819H47.7589V26.9434H47.7705L48.8064 29.6819H49.1847L50.2206 26.9434H50.2323V29.6819H50.6513V26.3899H50.046L48.9927 29.1572Z" fill="#4B7EF6"/>
<path d="M51.7782 28.1714H53.5067V27.8024H51.7782V26.7589H53.6348V26.3899H51.3359V29.6819H53.6464V29.3129H51.7782V28.1714Z" fill="#4B7EF6"/>
<path d="M56.2881 26.3899L54.9961 29.6819H55.45L55.8225 28.6902H57.2309L57.5917 29.6819H58.0806L56.7828 26.3899H56.2881ZM55.9564 28.3213L56.5209 26.7877H56.5325L57.0854 28.3213H55.9564Z" fill="#4B7EF6"/>
<path d="M60.5629 28.4942C60.5629 28.7882 60.4873 29.0131 60.3418 29.163C60.1963 29.3129 59.981 29.3936 59.6958 29.3936C59.399 29.3936 59.172 29.3186 59.009 29.163C58.8519 29.0131 58.7704 28.7882 58.7704 28.4942V26.3899H58.3281V28.4942C58.3281 28.9324 58.4503 29.2552 58.689 29.457C58.9276 29.6588 59.2651 29.7568 59.69 29.7568C60.109 29.7568 60.4291 29.653 60.656 29.4397C60.883 29.2264 60.9936 28.9151 60.9936 28.4942V26.3899H60.5513V28.4942H60.5629Z" fill="#4B7EF6"/>
<path d="M61.3125 26.7589H62.4183V29.6819H62.8606V26.7589H63.9722V26.3899H61.3125V26.7589Z" fill="#4B7EF6"/>
<path d="M66.8932 26.8325C66.7593 26.6711 66.5964 26.5442 66.3927 26.452C66.1948 26.354 65.962 26.3079 65.7001 26.3079C65.4382 26.3079 65.2054 26.354 65.0075 26.452C64.8097 26.55 64.6409 26.6768 64.507 26.8325C64.3732 26.9939 64.2742 27.1784 64.2044 27.386C64.1346 27.5935 64.1055 27.8068 64.1055 28.0317C64.1055 28.2565 64.1404 28.4698 64.2044 28.6774C64.2684 28.8849 64.3732 29.0694 64.507 29.2309C64.6409 29.3923 64.8038 29.5191 65.0075 29.6114C65.2112 29.7036 65.4382 29.7497 65.7001 29.7497C65.962 29.7497 66.1948 29.7036 66.3927 29.6114C66.5905 29.5191 66.7593 29.3923 66.8932 29.2309C67.027 29.0694 67.126 28.8849 67.1958 28.6774C67.2656 28.4698 67.2947 28.2565 67.2947 28.0317C67.2947 27.8068 67.2598 27.5935 67.1958 27.386C67.1318 27.1784 67.027 26.9939 66.8932 26.8325ZM66.7884 28.5275C66.7477 28.6889 66.6778 28.8331 66.5847 28.9657C66.4916 29.0925 66.3694 29.1963 66.2239 29.277C66.0784 29.3577 65.9038 29.3923 65.7001 29.3923C65.4964 29.3923 65.3218 29.3519 65.1763 29.277C65.0308 29.1963 64.9086 29.0925 64.8155 28.9657C64.7224 28.8388 64.6525 28.6889 64.6118 28.5275C64.5711 28.3661 64.5478 28.2046 64.5478 28.0374C64.5478 27.8703 64.5711 27.7088 64.6118 27.5474C64.6525 27.386 64.7224 27.2418 64.8155 27.1092C64.9086 26.9824 65.0308 26.8786 65.1763 26.7979C65.3218 26.7172 65.4964 26.6826 65.7001 26.6826C65.9038 26.6826 66.0784 26.723 66.2239 26.7979C66.3694 26.8786 66.4916 26.9824 66.5847 27.1092C66.6778 27.2361 66.7477 27.386 66.7884 27.5474C66.8291 27.7088 66.8524 27.8703 66.8524 28.0374C66.8524 28.2046 66.8291 28.3661 66.7884 28.5275Z" fill="#4B7EF6"/>
<path d="M69.4458 29.1572L68.3982 26.3899H67.793V29.6819H68.212V26.9434H68.2236L69.2596 29.6819H69.6378L70.6796 26.9434H70.6854V29.6819H71.1044V26.3899H70.4992L69.4458 29.1572Z" fill="#4B7EF6"/>
<path d="M72.6982 26.3899L71.4062 29.6819H71.8602L72.2327 28.6902H73.6411L74.0019 29.6819H74.4908L73.1929 26.3899H72.6982ZM72.3665 28.3213L72.931 26.7877H72.9427L73.4956 28.3213H72.3665Z" fill="#4B7EF6"/>
<path d="M73.9883 26.7589H75.094V29.6819H75.5363V26.7589H76.6421V26.3899H73.9883V26.7589Z" fill="#4B7EF6"/>
<path d="M77.4267 26.3899H76.9844V29.6819H77.4267V26.3899Z" fill="#4B7EF6"/>
<path d="M80.7174 26.8325C80.5835 26.6711 80.4206 26.5442 80.2169 26.452C80.019 26.354 79.7862 26.3079 79.5243 26.3079C79.2624 26.3079 79.0296 26.354 78.8318 26.452C78.6339 26.55 78.4651 26.6768 78.3313 26.8325C78.1974 26.9939 78.0985 27.1784 78.0286 27.386C77.9588 27.5935 77.9297 27.8068 77.9297 28.0317C77.9297 28.2565 77.9646 28.4698 78.0286 28.6774C78.0926 28.8849 78.1974 29.0694 78.3313 29.2309C78.4651 29.3923 78.6281 29.5191 78.8318 29.6114C79.0355 29.7036 79.2624 29.7497 79.5243 29.7497C79.7862 29.7497 80.019 29.7036 80.2169 29.6114C80.4147 29.5191 80.5835 29.3923 80.7174 29.2309C80.8512 29.0694 80.9502 28.8849 81.02 28.6774C81.0898 28.4698 81.1189 28.2565 81.1189 28.0317C81.1189 27.8068 81.084 27.5935 81.02 27.386C80.956 27.1784 80.8512 26.9939 80.7174 26.8325ZM80.6126 28.5275C80.5719 28.6889 80.502 28.8331 80.4089 28.9657C80.3158 29.0925 80.1936 29.1963 80.0481 29.277C79.9026 29.3577 79.728 29.3923 79.5243 29.3923C79.3206 29.3923 79.146 29.3519 79.0005 29.277C78.855 29.1963 78.7328 29.0925 78.6397 28.9657C78.5466 28.8388 78.4768 28.6889 78.436 28.5275C78.3953 28.3661 78.372 28.2046 78.372 28.0374C78.372 27.8703 78.3953 27.7088 78.436 27.5474C78.4768 27.386 78.5466 27.2418 78.6397 27.1092C78.7328 26.9824 78.855 26.8786 79.0005 26.7979C79.146 26.7172 79.3206 26.6826 79.5243 26.6826C79.728 26.6826 79.9026 26.723 80.0481 26.7979C80.1936 26.8786 80.3158 26.9824 80.4089 27.1092C80.502 27.2361 80.5719 27.386 80.6126 27.5474C80.6534 27.7088 80.6766 27.8703 80.6766 28.0374C80.6766 28.2046 80.6534 28.3661 80.6126 28.5275Z" fill="#4B7EF6"/>
<path d="M83.8384 29.0592H83.8325L82.0808 26.3899H81.6094V29.6819H82.0284V27.0414H82.04L83.7743 29.6819H84.2574V26.3899H83.8384V29.0592Z" fill="#4B7EF6"/>
<path d="M88.3297 28.1009C88.2308 28.0317 88.1144 27.974 87.9864 27.9337C87.8583 27.8933 87.7303 27.8587 87.5965 27.8241C87.4626 27.7953 87.3346 27.7665 87.2065 27.7376C87.0785 27.7088 86.9621 27.68 86.8632 27.6396C86.7642 27.5993 86.6827 27.5474 86.6187 27.484C86.5605 27.4206 86.5256 27.3398 86.5256 27.2361C86.5256 27.1265 86.5489 27.0401 86.5896 26.9651C86.6304 26.8959 86.6886 26.8325 86.7584 26.7921C86.8282 26.7518 86.9097 26.7172 86.997 26.6999C87.0843 26.6826 87.1774 26.6711 87.2705 26.6711C87.4975 26.6711 87.6896 26.723 87.8351 26.8325C87.9806 26.942 88.0679 27.1092 88.0911 27.3456H88.5102C88.5043 27.1669 88.4694 27.0055 88.4054 26.8786C88.3414 26.7518 88.2541 26.6423 88.1435 26.5558C88.0329 26.4693 87.9049 26.4059 87.7594 26.3655C87.6139 26.3252 87.4568 26.3079 87.2822 26.3079C87.1309 26.3079 86.9796 26.3252 86.8399 26.3655C86.6944 26.4059 86.5664 26.4635 86.4558 26.5385C86.3452 26.6192 86.2521 26.7172 86.1822 26.8383C86.1124 26.9593 86.0775 27.1035 86.0775 27.2707C86.0775 27.4206 86.1066 27.5474 86.1706 27.6454C86.2346 27.7434 86.3103 27.8241 86.415 27.8875C86.5198 27.951 86.6304 28.0029 86.7584 28.0374C86.8864 28.072 87.0145 28.1124 87.1483 28.1412C87.2822 28.17 87.4102 28.1989 87.5383 28.2277C87.6663 28.2565 87.7827 28.2911 87.8816 28.3372C87.9806 28.3834 88.062 28.441 88.1261 28.5102C88.1901 28.5794 88.2192 28.6716 88.2192 28.7869C88.2192 28.908 88.1959 29.006 88.1435 29.081C88.0911 29.1559 88.0271 29.2193 87.9456 29.2654C87.8642 29.3116 87.7769 29.3404 87.6721 29.3577C87.5732 29.375 87.4684 29.3865 87.3695 29.3865C87.2473 29.3865 87.1251 29.3692 87.0087 29.3404C86.8923 29.3116 86.7875 29.2597 86.7002 29.1963C86.6129 29.1328 86.5431 29.0521 86.4849 28.9484C86.4267 28.8446 86.4034 28.7293 86.4034 28.5909H85.9844C85.9844 28.7927 86.0193 28.9657 86.095 29.1098C86.1706 29.2539 86.2695 29.375 86.3918 29.4672C86.5198 29.5595 86.6653 29.6287 86.8282 29.6748C86.997 29.7209 87.1716 29.744 87.3578 29.744C87.5092 29.744 87.6605 29.7267 87.8176 29.6921C87.9689 29.6575 88.1086 29.5998 88.2366 29.5191C88.3588 29.4384 88.4636 29.3404 88.5393 29.2136C88.6207 29.0867 88.6557 28.9368 88.6557 28.7639C88.6557 28.6024 88.6266 28.4641 88.5625 28.3603C88.4985 28.2565 88.4287 28.1758 88.3297 28.1009Z" fill="#4B7EF6"/>
<path d="M90.3139 27.958L89.3187 26.3899H88.7891L90.0752 28.3328V29.6819H90.5175V28.3328L91.7921 26.3899H91.2858L90.3139 27.958Z" fill="#4B7EF6"/>
<path d="M94.2672 28.1009C94.1683 28.0317 94.0519 27.974 93.9239 27.9337C93.7958 27.8933 93.6678 27.8587 93.534 27.8241C93.4001 27.7953 93.2721 27.7665 93.144 27.7376C93.016 27.7088 92.8996 27.68 92.8007 27.6396C92.7017 27.5993 92.6202 27.5474 92.5562 27.484C92.498 27.4206 92.4631 27.3398 92.4631 27.2361C92.4631 27.1265 92.4864 27.0401 92.5271 26.9651C92.5679 26.8959 92.6261 26.8325 92.6959 26.7921C92.7657 26.7518 92.8472 26.7172 92.9345 26.6999C93.0218 26.6826 93.1149 26.6711 93.208 26.6711C93.435 26.6711 93.6271 26.723 93.7726 26.8325C93.9181 26.942 94.0054 27.1092 94.0286 27.3456H94.4477C94.4418 27.1669 94.4069 27.0055 94.3429 26.8786C94.2789 26.7518 94.1916 26.6423 94.081 26.5558C93.9704 26.4693 93.8424 26.4059 93.6969 26.3655C93.5514 26.3252 93.3943 26.3079 93.2197 26.3079C93.0684 26.3079 92.9171 26.3252 92.7774 26.3655C92.6319 26.4059 92.5039 26.4635 92.3933 26.5385C92.2827 26.6192 92.1896 26.7172 92.1197 26.8383C92.0499 26.9593 92.015 27.1035 92.015 27.2707C92.015 27.4206 92.0441 27.5474 92.1081 27.6454C92.1721 27.7434 92.2478 27.8241 92.3525 27.8875C92.4573 27.951 92.5679 28.0029 92.6959 28.0374C92.8239 28.072 92.952 28.1124 93.0858 28.1412C93.2197 28.17 93.3477 28.1989 93.4758 28.2277C93.6038 28.2565 93.7202 28.2911 93.8191 28.3372C93.9181 28.3834 93.9995 28.441 94.0636 28.5102C94.1276 28.5794 94.1567 28.6716 94.1567 28.7869C94.1567 28.908 94.1334 29.006 94.081 29.081C94.0286 29.1559 93.9646 29.2193 93.8831 29.2654C93.8017 29.3116 93.7144 29.3404 93.6096 29.3577C93.5107 29.375 93.4059 29.3865 93.307 29.3865C93.1848 29.3865 93.0626 29.3692 92.9462 29.3404C92.8298 29.3116 92.725 29.2597 92.6377 29.1963C92.5504 29.1328 92.4806 29.0521 92.4224 28.9484C92.3642 28.8446 92.3409 28.7293 92.3409 28.5909H91.9219C91.9219 28.7927 91.9568 28.9657 92.0325 29.1098C92.1081 29.2539 92.207 29.375 92.3293 29.4672C92.4573 29.5595 92.6028 29.6287 92.7657 29.6748C92.9345 29.7209 93.1091 29.744 93.2953 29.744C93.4467 29.744 93.598 29.7267 93.7551 29.6921C93.9064 29.6575 94.0461 29.5998 94.1741 29.5191C94.2963 29.4384 94.4011 29.3404 94.4768 29.2136C94.5582 29.0867 94.5932 28.9368 94.5932 28.7639C94.5932 28.6024 94.5641 28.4641 94.5 28.3603C94.436 28.2565 94.3662 28.1758 94.2672 28.1009Z" fill="#4B7EF6"/>
<path d="M94.7344 26.7589H95.846V29.6819H96.2883V26.7589H97.394V26.3899H94.7344V26.7589Z" fill="#4B7EF6"/>
<path d="M98.1571 28.1714H99.8856V27.8024H98.1571V26.7589H100.014V26.3899H97.7148V29.6819H100.025V29.3129H98.1571V28.1714Z" fill="#4B7EF6"/>
<path d="M102.18 29.1572L101.133 26.3899H100.527V29.6819H100.946V26.9434H100.952L101.994 29.6819H102.366L103.408 26.9434H103.414V29.6819H103.833V26.3899H103.228L102.18 29.1572Z" fill="#4B7EF6"/>
<path d="M106.674 28.1009C106.575 28.0317 106.458 27.974 106.33 27.9337C106.202 27.8933 106.074 27.8587 105.94 27.8241C105.806 27.7953 105.678 27.7665 105.55 27.7376C105.422 27.7088 105.306 27.68 105.207 27.6396C105.108 27.5993 105.027 27.5474 104.962 27.484C104.904 27.4206 104.869 27.3398 104.869 27.2361C104.869 27.1265 104.893 27.0401 104.933 26.9651C104.974 26.8959 105.032 26.8325 105.102 26.7921C105.172 26.7518 105.253 26.7172 105.341 26.6999C105.428 26.6826 105.521 26.6711 105.614 26.6711C105.841 26.6711 106.033 26.723 106.179 26.8325C106.324 26.942 106.412 27.1092 106.435 27.3456H106.854C106.848 27.1669 106.813 27.0055 106.749 26.8786C106.685 26.7518 106.598 26.6423 106.487 26.5558C106.377 26.4693 106.249 26.4059 106.103 26.3655C105.958 26.3252 105.801 26.3079 105.626 26.3079C105.475 26.3079 105.323 26.3252 105.184 26.3655C105.038 26.4059 104.91 26.4635 104.8 26.5385C104.689 26.6192 104.596 26.7172 104.526 26.8383C104.456 26.9593 104.421 27.1035 104.421 27.2707C104.421 27.4206 104.45 27.5474 104.514 27.6454C104.578 27.7434 104.654 27.8241 104.759 27.8875C104.864 27.951 104.974 28.0029 105.102 28.0374C105.23 28.072 105.358 28.1124 105.492 28.1412C105.626 28.17 105.754 28.1989 105.882 28.2277C106.01 28.2565 106.126 28.2911 106.225 28.3372C106.324 28.3834 106.406 28.441 106.47 28.5102C106.534 28.5794 106.563 28.6716 106.563 28.7869C106.563 28.908 106.54 29.006 106.487 29.081C106.435 29.1559 106.371 29.2193 106.289 29.2654C106.208 29.3116 106.121 29.3404 106.016 29.3577C105.917 29.375 105.812 29.3865 105.713 29.3865C105.591 29.3865 105.469 29.3692 105.352 29.3404C105.236 29.3116 105.131 29.2597 105.044 29.1963C104.957 29.1328 104.887 29.0521 104.829 28.9484C104.77 28.8446 104.747 28.7293 104.747 28.5909H104.328C104.328 28.7927 104.363 28.9657 104.439 29.1098C104.514 29.2539 104.613 29.375 104.736 29.4672C104.864 29.5595 105.009 29.6287 105.172 29.6748C105.341 29.7209 105.515 29.744 105.702 29.744C105.853 29.744 106.004 29.7267 106.161 29.6921C106.313 29.6575 106.452 29.5998 106.58 29.5191C106.703 29.4384 106.807 29.3404 106.883 29.2136C106.965 29.0867 106.999 28.9368 106.999 28.7639C106.999 28.6024 106.97 28.4641 106.906 28.3603C106.842 28.2565 106.772 28.1758 106.674 28.1009Z" fill="#4B7EF6"/>
<path d="M106.926 25.093H40.5283C40.4468 25.093 40.3828 25.1563 40.3828 25.2369C40.3828 25.3175 40.4468 25.3808 40.5283 25.3808H106.926C107.008 25.3808 107.072 25.3175 107.072 25.2369C107.072 25.1563 107.008 25.093 106.926 25.093Z" fill="#4B7EF6"/>
</svg>
